<?xml version="1.0" encoding="UTF-8" standalone="no"?>
<!DOCTYPE svg PUBLIC "-//W3C//DTD SVG 1.1//EN"
 "http://www.w3.org/Graphics/SVG/1.1/DTD/svg11.dtd">
<!-- Generated by graphviz version 2.42.4 (0)
 -->
<!-- Title: ReflowSubmitFlow Pages: 1 -->
<svg width="437pt" height="1111pt"
 viewBox="0.00 0.00 436.80 1110.80" xmlns="http://www.w3.org/2000/svg" xmlns:xlink="http://www.w3.org/1999/xlink">
<g id="graph0" class="graph" transform="scale(1 1) rotate(0) translate(14.4 1096.4)">
<title>ReflowSubmitFlow</title>
<polygon fill="white" stroke="transparent" points="-14.4,14.4 -14.4,-1096.4 422.4,-1096.4 422.4,14.4 -14.4,14.4"/>
<text text-anchor="middle" x="204" y="-1062" font-family="Helvetica,sans-Serif" font-size="20.00">Reflow submit and execution flow</text>
<!-- a -->
<g id="node1" class="node">
<title>a</title>
<path fill="#dbeafe" stroke="#475569" d="M357.5,-1052C357.5,-1052 185.5,-1052 185.5,-1052 179.5,-1052 173.5,-1046 173.5,-1040 173.5,-1040 173.5,-1028 173.5,-1028 173.5,-1022 179.5,-1016 185.5,-1016 185.5,-1016 357.5,-1016 357.5,-1016 363.5,-1016 369.5,-1022 369.5,-1028 369.5,-1028 369.5,-1040 369.5,-1040 369.5,-1046 363.5,-1052 357.5,-1052"/>
<text text-anchor="middle" x="271.5" y="-1030.3" font-family="Helvetica,sans-Serif" font-size="14.00">wf.submit(...) / CLI submit</text>
</g>
<!-- b -->
<g id="node2" class="node">
<title>b</title>
<path fill="#f8fafc" stroke="#475569" d="M370,-979C370,-979 173,-979 173,-979 167,-979 161,-973 161,-967 161,-967 161,-955 161,-955 161,-949 167,-943 173,-943 173,-943 370,-943 370,-943 376,-943 382,-949 382,-955 382,-955 382,-967 382,-967 382,-973 376,-979 370,-979"/>
<text text-anchor="middle" x="271.5" y="-957.3" font-family="Helvetica,sans-Serif" font-size="14.00">Validate DAG and parameters</text>
</g>
<!-- a&#45;&gt;b -->
<g id="edge1" class="edge">
<title>a&#45;&gt;b</title>
<path fill="none" stroke="#64748b" d="M271.5,-1015.81C271.5,-1007.79 271.5,-998.05 271.5,-989.07"/>
<polygon fill="#64748b" stroke="#64748b" points="275,-989.03 271.5,-979.03 268,-989.03 275,-989.03"/>
</g>
<!-- c -->
<g id="node3" class="node">
<title>c</title>
<path fill="#f8fafc" stroke="#475569" d="M349.5,-906C349.5,-906 193.5,-906 193.5,-906 187.5,-906 181.5,-900 181.5,-894 181.5,-894 181.5,-882 181.5,-882 181.5,-876 187.5,-870 193.5,-870 193.5,-870 349.5,-870 349.5,-870 355.5,-870 361.5,-876 361.5,-882 361.5,-882 361.5,-894 361.5,-894 361.5,-900 355.5,-906 349.5,-906"/>
<text text-anchor="middle" x="271.5" y="-884.3" font-family="Helvetica,sans-Serif" font-size="14.00">Create run_id + run_dir</text>
</g>
<!-- b&#45;&gt;c -->
<g id="edge2" class="edge">
<title>b&#45;&gt;c</title>
<path fill="none" stroke="#64748b" d="M271.5,-942.81C271.5,-934.79 271.5,-925.05 271.5,-916.07"/>
<polygon fill="#64748b" stroke="#64748b" points="275,-916.03 271.5,-906.03 268,-916.03 275,-916.03"/>
</g>
<!-- d -->
<g id="node4" class="node">
<title>d</title>
<path fill="#dcfce7" stroke="#475569" d="M396,-833C396,-833 147,-833 147,-833 141,-833 135,-827 135,-821 135,-821 135,-809 135,-809 135,-803 141,-797 147,-797 147,-797 396,-797 396,-797 402,-797 408,-803 408,-809 408,-809 408,-821 408,-821 408,-827 402,-833 396,-833"/>
<text text-anchor="middle" x="271.5" y="-811.3" font-family="Helvetica,sans-Serif" font-size="14.00">Persist run + task specs + instances</text>
</g>
<!-- c&#45;&gt;d -->
<g id="edge3" class="edge">
<title>c&#45;&gt;d</title>
<path fill="none" stroke="#64748b" d="M271.5,-869.81C271.5,-861.79 271.5,-852.05 271.5,-843.07"/>
<polygon fill="#64748b" stroke="#64748b" points="275,-843.03 271.5,-833.03 268,-843.03 275,-843.03"/>
</g>
<!-- e -->
<g id="node5" class="node">
<title>e</title>
<path fill="#f8fafc" stroke="#475569" d="M354.5,-760C354.5,-760 188.5,-760 188.5,-760 182.5,-760 176.5,-754 176.5,-748 176.5,-748 176.5,-736 176.5,-736 176.5,-730 182.5,-724 188.5,-724 188.5,-724 354.5,-724 354.5,-724 360.5,-724 366.5,-730 366.5,-736 366.5,-736 366.5,-748 366.5,-748 366.5,-754 360.5,-760 354.5,-760"/>
<text text-anchor="middle" x="271.5" y="-738.3" font-family="Helvetica,sans-Serif" font-size="14.00">Topological dispatch loop</text>
</g>
<!-- d&#45;&gt;e -->
<g id="edge4" class="edge">
<title>d&#45;&gt;e</title>
<path fill="none" stroke="#64748b" d="M271.5,-796.81C271.5,-788.79 271.5,-779.05 271.5,-770.07"/>
<polygon fill="#64748b" stroke="#64748b" points="275,-770.03 271.5,-760.03 268,-770.03 275,-770.03"/>
</g>
<!-- f -->
<g id="node6" class="node">
<title>f</title>
<path fill="#f8fafc" stroke="#475569" d="M291.5,-687C291.5,-687 127.5,-687 127.5,-687 121.5,-687 115.5,-681 115.5,-675 115.5,-675 115.5,-663 115.5,-663 115.5,-657 121.5,-651 127.5,-651 127.5,-651 291.5,-651 291.5,-651 297.5,-651 303.5,-657 303.5,-663 303.5,-663 303.5,-675 303.5,-675 303.5,-681 297.5,-687 291.5,-687"/>
<text text-anchor="middle" x="209.5" y="-665.3" font-family="Helvetica,sans-Serif" font-size="14.00">Resolve upstream inputs</text>
</g>
<!-- e&#45;&gt;f -->
<g id="edge5" class="edge">
<title>e&#45;&gt;f</title>
<path fill="none" stroke="#64748b" d="M256.49,-723.81C248.88,-715.09 239.49,-704.34 231.11,-694.75"/>
<polygon fill="#64748b" stroke="#64748b" points="233.58,-692.26 224.37,-687.03 228.31,-696.86 233.58,-692.26"/>
</g>
<!-- g -->
<g id="node7" class="node">
<title>g</title>
<path fill="#fef3c7" stroke="#475569" d="M282.5,-614C282.5,-614 124.5,-614 124.5,-614 118.5,-614 112.5,-608 112.5,-602 112.5,-602 112.5,-590 112.5,-590 112.5,-584 118.5,-578 124.5,-578 124.5,-578 282.5,-578 282.5,-578 288.5,-578 294.5,-584 294.5,-590 294.5,-590 294.5,-602 294.5,-602 294.5,-608 288.5,-614 282.5,-614"/>
<text text-anchor="middle" x="203.5" y="-592.3" font-family="Helvetica,sans-Serif" font-size="14.00">Compute cache identity</text>
</g>
<!-- f&#45;&gt;g -->
<g id="edge6" class="edge">
<title>f&#45;&gt;g</title>
<path fill="none" stroke="#64748b" d="M208.05,-650.81C207.37,-642.79 206.55,-633.05 205.79,-624.07"/>
<polygon fill="#64748b" stroke="#64748b" points="209.27,-623.7 204.94,-614.03 202.29,-624.29 209.27,-623.7"/>
</g>
<!-- h -->
<g id="node8" class="node">
<title>h</title>
<path fill="#fef3c7" stroke="#475569" d="M180.78,-538.42C180.78,-538.42 122.61,-525.58 122.61,-525.58 116.75,-524.29 116.75,-521.71 122.61,-520.42 122.61,-520.42 180.78,-507.58 180.78,-507.58 186.64,-506.29 198.36,-506.29 204.22,-507.58 204.22,-507.58 262.39,-520.42 262.39,-520.42 268.25,-521.71 268.25,-524.29 262.39,-525.58 262.39,-525.58 204.22,-538.42 204.22,-538.42 198.36,-539.71 186.64,-539.71 180.78,-538.42"/>
<text text-anchor="middle" x="192.5" y="-519.3" font-family="Helvetica,sans-Serif" font-size="14.00">Cache hit?</text>
</g>
<!-- g&#45;&gt;h -->
<g id="edge7" class="edge">
<title>g&#45;&gt;h</title>
<path fill="none" stroke="#64748b" d="M200.84,-577.81C199.58,-569.67 198.04,-559.76 196.63,-550.67"/>
<polygon fill="#64748b" stroke="#64748b" points="200.05,-549.89 195.06,-540.54 193.13,-550.96 200.05,-549.89"/>
</g>
<!-- i -->
<g id="node9" class="node">
<title>i</title>
<path fill="#dcfce7" stroke="#475569" d="M111,-400C111,-400 12,-400 12,-400 6,-400 0,-394 0,-388 0,-388 0,-374 0,-374 0,-368 6,-362 12,-362 12,-362 111,-362 111,-362 117,-362 123,-368 123,-374 123,-374 123,-388 123,-388 123,-394 117,-400 111,-400"/>
<text text-anchor="middle" x="61.5" y="-384.8" font-family="Helvetica,sans-Serif" font-size="14.00">Reuse output</text>
<text text-anchor="middle" x="61.5" y="-369.8" font-family="Helvetica,sans-Serif" font-size="14.00">mark SUCCESS</text>
</g>
<!-- h&#45;&gt;i -->
<g id="edge8" class="edge">
<title>h&#45;&gt;i</title>
<path fill="none" stroke="#64748b" d="M172.15,-509.2C153.35,-496.69 125.4,-476.33 105.5,-454 93.43,-440.45 82.74,-423.16 74.92,-408.92"/>
<polygon fill="#64748b" stroke="#64748b" points="77.99,-407.25 70.21,-400.07 71.81,-410.54 77.99,-407.25"/>
<text text-anchor="middle" x="153" y="-475.8" font-family="Helvetica,sans-Serif" font-size="14.00">yes</text>
</g>
<!-- j -->
<g id="node10" class="node">
<title>j</title>
<path fill="#fde68a" stroke="#475569" d="M258,-454C258,-454 127,-454 127,-454 121,-454 115,-448 115,-442 115,-442 115,-430 115,-430 115,-424 121,-418 127,-418 127,-418 258,-418 258,-418 264,-418 270,-424 270,-430 270,-430 270,-442 270,-442 270,-448 264,-454 258,-454"/>
<text text-anchor="middle" x="192.5" y="-432.3" font-family="Helvetica,sans-Serif" font-size="14.00">Submit via executor</text>
</g>
<!-- h&#45;&gt;j -->
<g id="edge9" class="edge">
<title>h&#45;&gt;j</title>
<path fill="none" stroke="#64748b" d="M192.5,-504.8C192.5,-493.16 192.5,-477.55 192.5,-464.24"/>
<polygon fill="#64748b" stroke="#64748b" points="196,-464.18 192.5,-454.18 189,-464.18 196,-464.18"/>
<text text-anchor="middle" x="201.5" y="-475.8" font-family="Helvetica,sans-Serif" font-size="14.00">no</text>
</g>
<!-- n -->
<g id="node14" class="node">
<title>n</title>
<path fill="#e0f2fe" stroke="#475569" d="M180.58,-123.59C180.58,-123.59 51.76,-108.41 51.76,-108.41 45.8,-107.7 45.8,-106.3 51.76,-105.59 51.76,-105.59 180.58,-90.41 180.58,-90.41 186.54,-89.7 198.46,-89.7 204.42,-90.41 204.42,-90.41 333.24,-105.59 333.24,-105.59 339.2,-106.3 339.2,-107.7 333.24,-108.41 333.24,-108.41 204.42,-123.59 204.42,-123.59 198.46,-124.3 186.54,-124.3 180.58,-123.59"/>
<text text-anchor="middle" x="192.5" y="-103.3" font-family="Helvetica,sans-Serif" font-size="14.00">More runnable tasks?</text>
</g>
<!-- i&#45;&gt;n -->
<g id="edge13" class="edge">
<title>i&#45;&gt;n</title>
<path fill="none" stroke="#64748b" d="M58.6,-361.78C55.97,-343.64 52.5,-314.97 52.5,-290 52.5,-290 52.5,-290 52.5,-179 52.5,-147.02 81.92,-129.44 113.79,-119.77"/>
<polygon fill="#64748b" stroke="#64748b" points="115.03,-123.06 123.73,-117.02 113.16,-116.32 115.03,-123.06"/>
</g>
<!-- k -->
<g id="node11" class="node">
<title>k</title>
<path fill="#fde68a" stroke="#475569" d="M277.5,-344C277.5,-344 107.5,-344 107.5,-344 101.5,-344 95.5,-338 95.5,-332 95.5,-332 95.5,-320 95.5,-320 95.5,-314 101.5,-308 107.5,-308 107.5,-308 277.5,-308 277.5,-308 283.5,-308 289.5,-314 289.5,-320 289.5,-320 289.5,-332 289.5,-332 289.5,-338 283.5,-344 277.5,-344"/>
<text text-anchor="middle" x="192.5" y="-322.3" font-family="Helvetica,sans-Serif" font-size="14.00">Backend launches worker</text>
</g>
<!-- j&#45;&gt;k -->
<g id="edge10" class="edge">
<title>j&#45;&gt;k</title>
<path fill="none" stroke="#64748b" d="M192.5,-417.65C192.5,-400.56 192.5,-374.22 192.5,-354.32"/>
<polygon fill="#64748b" stroke="#64748b" points="196,-354.31 192.5,-344.31 189,-354.31 196,-354.31"/>
</g>
<!-- l -->
<g id="node12" class="node">
<title>l</title>
<path fill="#fce7f3" stroke="#475569" d="M289.5,-271C289.5,-271 95.5,-271 95.5,-271 89.5,-271 83.5,-265 83.5,-259 83.5,-259 83.5,-247 83.5,-247 83.5,-241 89.5,-235 95.5,-235 95.5,-235 289.5,-235 289.5,-235 295.5,-235 301.5,-241 301.5,-247 301.5,-247 301.5,-259 301.5,-259 301.5,-265 295.5,-271 289.5,-271"/>
<text text-anchor="middle" x="192.5" y="-249.3" font-family="Helvetica,sans-Serif" font-size="14.00">Worker executes Python task</text>
</g>
<!-- k&#45;&gt;l -->
<g id="edge11" class="edge">
<title>k&#45;&gt;l</title>
<path fill="none" stroke="#64748b" d="M192.5,-307.81C192.5,-299.79 192.5,-290.05 192.5,-281.07"/>
<polygon fill="#64748b" stroke="#64748b" points="196,-281.03 192.5,-271.03 189,-281.03 196,-281.03"/>
</g>
<!-- m -->
<g id="node13" class="node">
<title>m</title>
<path fill="#dcfce7" stroke="#475569" d="M292.5,-198C292.5,-198 92.5,-198 92.5,-198 86.5,-198 80.5,-192 80.5,-186 80.5,-186 80.5,-174 80.5,-174 80.5,-168 86.5,-162 92.5,-162 92.5,-162 292.5,-162 292.5,-162 298.5,-162 304.5,-168 304.5,-174 304.5,-174 304.5,-186 304.5,-186 304.5,-192 298.5,-198 292.5,-198"/>
<text text-anchor="middle" x="192.5" y="-176.3" font-family="Helvetica,sans-Serif" font-size="14.00">Persist output / hashes / state</text>
</g>
<!-- l&#45;&gt;m -->
<g id="edge12" class="edge">
<title>l&#45;&gt;m</title>
<path fill="none" stroke="#64748b" d="M192.5,-234.81C192.5,-226.79 192.5,-217.05 192.5,-208.07"/>
<polygon fill="#64748b" stroke="#64748b" points="196,-208.03 192.5,-198.03 189,-208.03 196,-208.03"/>
</g>
<!-- m&#45;&gt;n -->
<g id="edge14" class="edge">
<title>m&#45;&gt;n</title>
<path fill="none" stroke="#64748b" d="M192.5,-161.81C192.5,-153.79 192.5,-144.05 192.5,-135.07"/>
<polygon fill="#64748b" stroke="#64748b" points="196,-135.03 192.5,-125.03 189,-135.03 196,-135.03"/>
</g>
<!-- n&#45;&gt;e -->
<g id="edge15" class="edge">
<title>n&#45;&gt;e</title>
<path fill="none" stroke="#64748b" d="M261.27,-117.02C296.67,-125.95 332.5,-143.71 332.5,-179 332.5,-670 332.5,-670 332.5,-670 332.5,-688.75 320.11,-705.02 306.5,-717.23"/>
<polygon fill="#64748b" stroke="#64748b" points="303.88,-714.86 298.43,-723.95 308.36,-720.24 303.88,-714.86"/>
<text text-anchor="middle" x="345" y="-432.3" font-family="Helvetica,sans-Serif" font-size="14.00">yes</text>
</g>
<!-- o -->
<g id="node15" class="node">
<title>o</title>
<path fill="#dbeafe" stroke="#475569" d="M295.5,-38C295.5,-38 89.5,-38 89.5,-38 83.5,-38 77.5,-32 77.5,-26 77.5,-26 77.5,-12 77.5,-12 77.5,-6 83.5,0 89.5,0 89.5,0 295.5,0 295.5,0 301.5,0 307.5,-6 307.5,-12 307.5,-12 307.5,-26 307.5,-26 307.5,-32 301.5,-38 295.5,-38"/>
<text text-anchor="middle" x="192.5" y="-22.8" font-family="Helvetica,sans-Serif" font-size="14.00">Update run state</text>
<text text-anchor="middle" x="192.5" y="-7.8" font-family="Helvetica,sans-Serif" font-size="14.00">status / retry / cancel available</text>
</g>
<!-- n&#45;&gt;o -->
<g id="edge16" class="edge">
<title>n&#45;&gt;o</title>
<path fill="none" stroke="#64748b" d="M192.5,-88.6C192.5,-77.06 192.5,-61.65 192.5,-48.36"/>
<polygon fill="#64748b" stroke="#64748b" points="196,-48.27 192.5,-38.27 189,-48.27 196,-48.27"/>
<text text-anchor="middle" x="201.5" y="-59.8" font-family="Helvetica,sans-Serif" font-size="14.00">no</text>
</g>
</g>
</svg>
